<svg width="10" height="14" viewBox="0 0 10 14" fill="none" xmlns="http://www.w3.org/2000/svg">
<path d="M5.65 1C5.65 0.641015 5.35899 0.35 5 0.35C4.64101 0.35 4.35 0.641015 4.35 1L5.65 1ZM4.54038 13.4596C4.79422 13.7135 5.20578 13.7135 5.45962 13.4596L9.59619 9.32304C9.85004 9.0692 9.85004 8.65765 9.59619 8.40381C9.34235 8.14997 8.9308 8.14997 8.67696 8.40381L5 12.0808L1.32305 8.40381C1.0692 8.14997 0.657647 8.14997 0.403807 8.40381C0.149966 8.65765 0.149966 9.0692 0.403807 9.32304L4.54038 13.4596ZM4.35 1L4.35 13L5.65 13L5.65 1L4.35 1Z" fill="#66777E"/>
</svg>
