<svg width="20" height="20" viewBox="0 0 20 20" fill="none" xmlns="http://www.w3.org/2000/svg">
<path d="M2.89844 13.3577C2.89844 16.7562 5.67737 19.1587 9.59487 19.1587C14.0395 19.1587 17.0949 16.2873 17.0949 11.5666C17.0949 4.20054 10.6327 0.84375 5.92022 0.84375C5.17522 0.84375 4.80701 1.21232 4.80701 1.63911C4.80701 1.98196 4.99094 2.26696 5.26737 2.66054C5.93701 3.58089 7.07522 4.92018 7.07522 6.60268C7.07522 6.74518 7.06701 6.88732 7.05022 7.03839C6.58165 6.15911 5.75272 5.53982 4.74844 5.53982C4.46379 5.53982 4.31308 5.70732 4.31308 5.94982C4.31308 6.24268 4.37987 6.45232 4.37987 7.36446C4.37987 9.11411 2.89844 10.2941 2.89844 13.3577ZM9.76237 16.8066C8.08808 16.8066 6.97487 15.7937 6.97487 14.287C6.97487 12.7048 8.09629 12.1441 8.24737 11.1227C8.25558 11.0391 8.31415 11.0141 8.37272 11.0727C8.79129 11.4327 9.05094 11.8845 9.25165 12.4037C9.29344 12.4955 9.36058 12.5037 9.40237 12.4287C9.86272 11.6252 9.94629 10.428 9.83772 8.92161C9.82094 8.83768 9.87951 8.79589 9.95487 8.82946C11.9388 9.73339 12.9513 11.7005 12.9513 13.4666C12.9513 15.2412 11.9052 16.8066 9.76237 16.8066Z" fill="#FB9501"/>
</svg>
