<svg width="20" height="20" viewBox="0 0 20 20" fill="none" xmlns="http://www.w3.org/2000/svg">
<path d="M11.4881 1.34481C11.0517 1.03413 10.5292 0.867188 9.99352 0.867188C9.45779 0.867188 8.93538 1.03413 8.49893 1.34481C6.06777 3.1732 2 6.82908 2 11.1535C2 17.0021 6.78104 19.1328 9.99854 19.1328C13.216 19.1328 17.9971 17.0031 17.9971 11.1526C17.9971 6.83821 13.9202 3.15585 11.4881 1.34481ZM9.99854 16.6377C9.27695 16.6382 8.56235 16.4963 7.89568 16.2202C7.22901 15.944 6.62336 15.5391 6.11343 15.0285C5.60357 14.5224 5.19958 13.9198 4.92502 13.2559C4.65046 12.592 4.51083 11.8801 4.51427 11.1617C4.51427 11.0417 4.53791 10.9229 4.58383 10.812C4.62975 10.7012 4.69705 10.6004 4.7819 10.5156C4.86675 10.4307 4.96748 10.3634 5.07834 10.3175C5.1892 10.2716 5.30802 10.248 5.42801 10.248C5.54801 10.248 5.66683 10.2716 5.77769 10.3175C5.88855 10.3634 5.98928 10.4307 6.07412 10.5156C6.15897 10.6004 6.22628 10.7012 6.2722 10.812C6.31812 10.9229 6.34175 11.0417 6.34175 11.1617C6.33844 11.6411 6.43139 12.1164 6.61509 12.5592C6.79879 13.0021 7.06951 13.4036 7.41121 13.7399C7.75114 14.0792 8.15461 14.3483 8.59855 14.5316C9.0425 14.715 9.51823 14.809 9.99854 14.8084C10.2411 14.8084 10.4738 14.9048 10.6453 15.0763C10.8168 15.2479 10.9132 15.4805 10.9132 15.7231C10.9132 15.9657 10.8168 16.1983 10.6453 16.3699C10.4738 16.5414 10.2411 16.6377 9.99854 16.6377Z" fill="#41AEED"/>
</svg>
