<svg width="40" height="40" viewBox="0 0 40 40" fill="none" xmlns="http://www.w3.org/2000/svg">
<path d="M30.0069 2.60156H15.5866C15.2273 2.60191 14.8745 2.69661 14.5633 2.87621C14.2521 3.0558 13.9936 3.31398 13.8136 3.62491L6.60333 16.1123C6.42306 16.4233 6.32812 16.7763 6.32812 17.1357C6.32812 17.4951 6.42306 17.8481 6.60333 18.159L13.8136 30.6466L17.3593 28.5999L10.7434 17.1357L16.77 6.69494H28.8286L35.4496 18.1589L38.9953 16.1123L31.7797 3.62491C31.6002 3.31361 31.3418 3.05511 31.0306 2.87546C30.7193 2.6958 30.3663 2.60133 30.0069 2.60156Z" fill="#9C6CFF"/>
<path d="M26.1295 9.38281L22.5838 11.4295L29.2048 22.8936L23.1782 33.3343H11.1198L4.49882 21.8702L0.953125 23.917L8.16335 36.4044C8.34302 36.7156 8.60145 36.974 8.91265 37.1536C9.22386 37.3333 9.57687 37.4278 9.9362 37.4278H24.3567C24.7159 37.4274 25.0688 37.3326 25.3799 37.1531C25.691 36.9735 25.9495 36.7153 26.1295 36.4044L33.3398 23.917C33.52 23.6061 33.615 23.253 33.615 22.8936C33.615 22.5342 33.52 22.1812 33.3398 21.8703L26.1295 9.38281Z" fill="#05D2DD"/>
</svg>
