<svg width="40" height="40" viewBox="0 0 40 40" fill="none" xmlns="http://www.w3.org/2000/svg">
<g clip-path="url(#clip0_772_623)">
<mask id="mask0_772_623" style="mask-type:luminance" maskUnits="userSpaceOnUse" x="0" y="0" width="40" height="40">
<path d="M40 0H0V40H40V0Z" fill="white"/>
</mask>
<g mask="url(#mask0_772_623)">
<path d="M30.909 0H9.09091C4.07014 0 0 4.07014 0 9.09091V30.909C0 35.9299 4.07014 40 9.09091 40H30.909C35.9299 40 40 35.9299 40 30.909V9.09091C40 4.07014 35.9299 0 30.909 0Z" fill="url(#paint0_linear_772_623)"/>
<path d="M30.909 0H9.09091C4.07014 0 0 4.07014 0 9.09091V30.909C0 35.9299 4.07014 40 9.09091 40H30.909C35.9299 40 40 35.9299 40 30.909V9.09091C40 4.07014 35.9299 0 30.909 0Z" fill="url(#paint1_radial_772_623)"/>
<path d="M30.909 0H9.09091C4.07014 0 0 4.07014 0 9.09091V30.909C0 35.9299 4.07014 40 9.09091 40H30.909C35.9299 40 40 35.9299 40 30.909V9.09091C40 4.07014 35.9299 0 30.909 0Z" fill="url(#paint2_radial_772_623)"/>
<path d="M30.909 0H9.09091C4.07014 0 0 4.07014 0 9.09091V30.909C0 35.9299 4.07014 40 9.09091 40H30.909C35.9299 40 40 35.9299 40 30.909V9.09091C40 4.07014 35.9299 0 30.909 0Z" fill="url(#paint3_radial_772_623)"/>
<path d="M16.4317 30.718V21.4397L25.4468 30.718H30.4624V30.4766L20.0924 19.9092L29.6643 9.88401V9.76562H24.6162L16.4317 18.6248V9.76562H12.3672V30.718H16.4317Z" fill="white"/>
</g>
</g>
<defs>
<linearGradient id="paint0_linear_772_623" x1="20" y1="0" x2="20" y2="40" gradientUnits="userSpaceOnUse">
<stop stop-color="#1FD1FF"/>
<stop offset="1" stop-color="#1BB8FF"/>
</linearGradient>
<radialGradient id="paint1_radial_772_623" cx="0" cy="0" r="1" gradientUnits="userSpaceOnUse" gradientTransform="translate(1.91069 38.4844) rotate(-45.1556) scale(64.1473 65.107)">
<stop stop-color="#232DE3"/>
<stop offset="1" stop-color="#232DE3" stop-opacity="0"/>
</radialGradient>
<radialGradient id="paint2_radial_772_623" cx="0" cy="0" r="1" gradientUnits="userSpaceOnUse" gradientTransform="translate(37.8456 39.7716) rotate(-138.45) scale(40.1083 61.1539)">
<stop stop-color="#8B4DFF"/>
<stop offset="1" stop-color="#8B4DFF" stop-opacity="0"/>
</radialGradient>
<radialGradient id="paint3_radial_772_623" cx="0" cy="0" r="1" gradientUnits="userSpaceOnUse" gradientTransform="translate(19.6668 0.296665) rotate(90) scale(31.5367 76.5165)">
<stop stop-color="#24D5FF"/>
<stop offset="1" stop-color="#1BB8FF" stop-opacity="0"/>
</radialGradient>
<clipPath id="clip0_772_623">
<rect width="40" height="40" fill="white"/>
</clipPath>
</defs>
</svg>
