<svg width="40" height="35" viewBox="0 0 40 35" fill="none" xmlns="http://www.w3.org/2000/svg">
<mask id="mask0_280_5165" style="mask-type:luminance" maskUnits="userSpaceOnUse" x="1" y="0" width="38" height="25">
<path d="M38.9628 0H1.08594V24.607H38.9628V0Z" fill="white"/>
</mask>
<g mask="url(#mask0_280_5165)">
<path d="M35.2008 16.9904C35.2008 22.4076 28.5875 24.6091 20.3707 24.6091C12.1539 24.6091 5.44531 22.4076 5.44531 16.9904C5.44531 11.5732 12.1106 7.1875 20.3187 7.1875C28.5355 7.1875 35.2008 11.5819 35.2008 16.9904Z" fill="#4BAF74"/>
</g>
<mask id="mask1_280_5165" style="mask-type:luminance" maskUnits="userSpaceOnUse" x="1" y="0" width="38" height="25">
<path d="M38.9628 0H1.08594V24.607H38.9628V0Z" fill="white"/>
</mask>
<g mask="url(#mask1_280_5165)">
<path d="M33.6846 5.17449C33.6846 2.32289 31.3531 0 28.4841 0C26.8633 0 25.4245 0.736735 24.4711 1.88951C23.171 1.60348 21.7842 1.4388 20.354 1.4388C18.9152 1.4388 17.5371 1.59482 16.237 1.88951C15.2749 0.736735 13.8274 0 12.2239 0C9.35499 0 7.02344 2.31422 7.02344 5.17449C7.02344 6.11058 7.2748 6.98599 7.70817 7.74006C7.29213 8.62415 7.07544 9.56023 7.07544 10.5397C7.07544 15.5668 13.03 19.6405 20.3627 19.6405C27.6954 19.6405 33.6499 15.5668 33.6499 10.5397C33.6499 9.56023 33.4246 8.62415 33.0172 7.74006C33.4333 6.98599 33.6846 6.11058 33.6846 5.17449Z" fill="#32DA6D"/>
</g>
<mask id="mask2_280_5165" style="mask-type:luminance" maskUnits="userSpaceOnUse" x="1" y="0" width="38" height="25">
<path d="M38.9628 0H1.08594V24.607H38.9628V0Z" fill="white"/>
</mask>
<g mask="url(#mask2_280_5165)">
<path d="M11.806 8.04601C13.5568 8.04601 14.9869 6.63321 14.9869 4.88238C14.9869 3.14022 13.5655 1.71875 11.806 1.71875C10.0551 1.71875 8.625 3.13155 8.625 4.88238C8.63367 6.63321 10.0551 8.04601 11.806 8.04601Z" fill="#F1F1E8"/>
</g>
<mask id="mask3_280_5165" style="mask-type:luminance" maskUnits="userSpaceOnUse" x="1" y="0" width="38" height="25">
<path d="M38.9628 0H1.08594V24.607H38.9628V0Z" fill="white"/>
</mask>
<g mask="url(#mask3_280_5165)">
<path d="M28.7591 8.04601C30.5099 8.04601 31.9401 6.63321 31.9401 4.88238C31.9401 3.14022 30.5186 1.71875 28.7591 1.71875C26.9996 1.71875 25.5781 3.13155 25.5781 4.88238C25.5781 6.63321 26.9996 8.04601 28.7591 8.04601Z" fill="#F1F1E8"/>
</g>
<mask id="mask4_280_5165" style="mask-type:luminance" maskUnits="userSpaceOnUse" x="1" y="0" width="38" height="25">
<path d="M38.9628 0H1.08594V24.607H38.9628V0Z" fill="white"/>
</mask>
<g mask="url(#mask4_280_5165)">
<path d="M10.1156 24.2418C10.8004 24.2418 11.3377 23.6524 11.2597 22.9764C10.9824 20.6015 9.79492 15.4616 4.58577 12.3674C-2.34822 8.2503 3.1383 22.4216 3.1383 22.4216L1.69949 23.245C1.21412 23.5224 1.42213 24.2418 1.96819 24.2418H10.1156Z" fill="#32DA6D"/>
</g>
<mask id="mask5_280_5165" style="mask-type:luminance" maskUnits="userSpaceOnUse" x="1" y="0" width="38" height="25">
<path d="M38.9628 0H1.08594V24.607H38.9628V0Z" fill="white"/>
</mask>
<g mask="url(#mask5_280_5165)">
<path d="M30.8037 24.2418C30.1883 24.2418 29.7029 23.6524 29.7722 22.9764C30.0149 20.6101 31.0897 15.4616 35.7875 12.3674C42.0541 8.2503 37.0963 22.4216 37.0963 22.4216L38.3964 23.245C38.8298 23.5224 38.6477 24.2418 38.1537 24.2418H30.8037Z" fill="#32DA6D"/>
</g>
<mask id="mask6_280_5165" style="mask-type:luminance" maskUnits="userSpaceOnUse" x="1" y="0" width="38" height="25">
<path d="M38.9628 0H1.08594V24.607H38.9628V0Z" fill="white"/>
</mask>
<g mask="url(#mask6_280_5165)">
<path d="M11.8073 5.45661C12.128 5.45661 12.388 5.19658 12.388 4.88455C12.388 4.56386 12.128 4.3125 11.8073 4.3125C11.4866 4.3125 11.2266 4.57253 11.2266 4.88455C11.2352 5.19658 11.4953 5.45661 11.8073 5.45661Z" fill="#0D0D0D"/>
</g>
<mask id="mask7_280_5165" style="mask-type:luminance" maskUnits="userSpaceOnUse" x="1" y="0" width="38" height="25">
<path d="M38.9628 0H1.08594V24.607H38.9628V0Z" fill="white"/>
</mask>
<g mask="url(#mask7_280_5165)">
<path d="M28.7526 5.45661C29.0733 5.45661 29.3333 5.19658 29.3333 4.88455C29.3333 4.56386 29.0733 4.3125 28.7526 4.3125C28.4319 4.3125 28.1719 4.57253 28.1719 4.88455C28.1719 5.19658 28.4319 5.45661 28.7526 5.45661Z" fill="#0D0D0D"/>
</g>
<path d="M0.585938 25.875H39.4163V27.9552C39.4163 31.306 36.6999 34.0224 33.349 34.0224H6.65318C3.30233 34.0224 0.585938 31.306 0.585938 27.9552V25.875Z" fill="#C782D8"/>
</svg>
