<svg width="40" height="40" viewBox="0 0 40 40" fill="none" xmlns="http://www.w3.org/2000/svg">
<g clip-path="url(#clip0_280_5157)">
<path d="M32.7555 0H14.8868V24.1132H39V6.24455C39 2.78463 36.2154 0 32.7555 0ZM9.31751 0H6.24455C2.78463 0 0 2.78463 0 6.24455V9.31751H9.31751V0ZM0 14.8868H9.31751V24.2043H0V14.8868ZM29.7811 39H32.8541C36.314 39 39.0986 36.2154 39.0986 32.7554V29.7811H29.7811V39ZM14.8868 29.7811H24.2043V39.0986H14.8868V29.7811ZM0 29.7811V32.8541C0 36.314 2.78463 39.0986 6.24455 39.0986H9.31751V29.7811H0ZM62.8249 2.4963H59.1753V36.5947H78.4856V33.3321H62.8249V2.4963ZM90.2008 11.5255C83.0913 11.5255 78.0986 16.8064 78.0986 24.394V25.2665C78.1973 28.5292 79.6389 31.6097 82.0366 33.9088C84.3432 36.0257 87.3175 37.27 90.4891 37.27H90.9671C94.3284 37.27 97.5 36.0181 99.9963 33.9088L100.095 33.8101L98.4636 31.1241L98.2739 31.2228C96.2556 33.0514 93.7593 34.106 91.0734 34.106C86.6574 34.106 82.1428 31.2228 81.8545 24.7885H100.3V24.5988C100.3 24.5988 100.398 23.4455 100.398 22.8689C100.376 15.949 96.3467 11.5255 90.2008 11.5255ZM81.9379 21.708C82.7043 17.3831 85.8759 14.5984 90.0035 14.5984C93.0765 14.5984 96.4378 16.427 96.7261 21.708H81.9379ZM121.515 14.4088V15.6607C119.974 13.0658 117.099 11.4344 114.117 11.4344H113.828C107.296 11.4344 102.781 16.6243 102.781 24.2119C102.781 31.8981 107.106 37.0803 113.54 37.0803C118.631 37.0803 120.938 34.0074 121.704 32.6644V36.4126H125.164V2.4963H121.613V14.4088H121.515ZM114.018 33.9088C109.504 33.9088 106.529 30.0695 106.529 24.3029C106.529 18.7337 109.701 14.7957 114.117 14.7957C117.865 14.7957 121.606 17.77 121.606 24.3029C121.606 31.4124 117.668 33.9088 114.018 33.9088ZM146.197 14.8868V15.0765C145.522 13.9232 143.412 11.4268 138.321 11.4268C131.887 11.4268 127.661 16.3284 127.661 23.8173C127.661 31.3062 132.076 36.3975 138.609 36.3975C142.16 36.3975 144.566 35.1455 146.197 32.5582V35.9195C146.197 40.6237 143.223 43.3173 137.934 43.3173C135.726 43.3173 133.419 42.7407 131.401 41.686L131.211 41.5873L129.868 44.5617L130.058 44.6603C132.554 45.9123 135.339 46.58 138.033 46.58C143.701 46.58 149.748 43.6967 149.748 35.7222V12.1021H146.197V14.8868ZM139.087 33.2335C134.383 33.2335 131.31 29.5839 131.31 23.916C131.31 18.1494 133.996 14.8868 138.609 14.8868C143.701 14.8868 146.098 17.8611 146.098 23.916C146.197 29.8722 143.701 33.2335 139.087 33.2335ZM164.255 11.5255C157.146 11.5255 152.252 16.8064 152.252 24.3029V25.1679C152.35 28.4305 153.792 31.5111 156.19 33.8101C158.496 35.927 161.471 37.1714 164.642 37.1714H165.12C168.482 37.1714 171.653 35.9195 174.149 33.8101L174.248 33.7115L172.518 31.0255L172.328 31.1241C170.31 32.9527 167.814 34.0074 165.128 34.0074C160.712 34.0074 156.197 31.1241 155.909 24.6899H174.438V24.5002C174.438 24.5002 174.536 23.3469 174.536 22.7702C174.536 15.949 170.5 11.5255 164.255 11.5255ZM156.091 21.708C156.857 17.3831 160.029 14.5984 164.157 14.5984C167.23 14.5984 170.591 16.427 170.879 21.708H156.091ZM189.522 12.0035C189.044 11.9049 188.657 11.9049 188.179 11.8138C184.818 11.8138 182.033 13.9307 180.591 17.4817V12.0035H177.04L177.139 36.3064V36.4961H180.789V26.2226C180.789 24.6823 180.978 23.051 181.464 21.6093C182.617 17.8611 185.212 15.4634 188.285 15.4634C188.672 15.4634 189.051 15.4634 189.438 15.5621H189.628V12.0111L189.522 12.0035Z" fill="white"/>
</g>
<defs>
<clipPath id="clip0_280_5157">
<rect width="40" height="40" fill="white"/>
</clipPath>
</defs>
</svg>
