<svg width="40" height="36" viewBox="0 0 40 36" fill="none" xmlns="http://www.w3.org/2000/svg">
<path d="M37.806 0L25.3168 4.61424H14.9194L2.43017 0L0.492188 5.75242L1.78417 11.9355L0.953611 12.5507L2.18407 13.4736L1.23046 14.1811L2.46093 15.2885L1.69189 15.8422L3.47606 17.934L0.799803 26.1781L3.29149 34.6068L12.0278 32.2381L13.7197 33.6224L17.165 35.9603H23.0712L26.5472 33.6224L28.2391 32.2381L36.9754 34.6068L39.4671 26.1781L36.7601 17.934M36.7293 17.934L38.5135 15.873L37.7445 15.3193L38.9749 14.2118L38.0213 13.5043L39.2518 12.5815L38.452 11.9663L39.744 5.78318L37.806 0.0307635" fill="#F5841F"/>
<path d="M37.7953 0L22.4453 11.228L25.3061 4.58348L37.7953 0Z" fill="#E27625"/>
<path d="M2.39844 0L17.6254 11.3203L14.8876 4.58348L2.39844 0Z" fill="#E27625"/>
<path d="M32.2558 26.0234L28.1953 32.1758L36.9316 34.5752L39.4233 26.1465L32.2558 26.0234Z" fill="#E27625"/>
<path d="M0.757812 26.1465L3.2495 34.5752L11.9858 32.1758L7.92526 26.0234L0.757812 26.1465Z" fill="#E27625"/>
<path d="M11.5317 15.5893L9.10156 19.2192L17.7456 19.6191L17.4687 10.3906L11.5317 15.5893Z" fill="#E27625"/>
<path d="M28.6591 15.5957L22.6299 10.3047L22.4453 19.6254L31.0893 19.2255L28.6591 15.5957Z" fill="#E27625"/>
<path d="M11.9844 32.1787L17.2138 29.687L12.7227 26.2109L11.9844 32.1787Z" fill="#E27625"/>
<path d="M22.9688 29.687L28.1982 32.1787L27.4599 26.2109L22.9688 29.687Z" fill="#E27625"/>
<path d="M28.1982 32.1792L22.9688 29.6875L23.3994 33.0405L23.3379 34.4555L28.1982 32.1792Z" fill="#D7C1B3"/>
<path d="M11.9844 32.1792L16.8447 34.4555L16.8139 33.0405L17.2138 29.6875L11.9844 32.1792Z" fill="#D7C1B3"/>
<path d="M16.9389 23.9971L12.6016 22.7358L15.647 21.3516L16.9389 23.9971Z" fill="#2F343B"/>
<path d="M23.2422 23.9971L24.5342 21.3516L27.6103 22.7358L23.2422 23.9971Z" fill="#2F343B"/>
<path d="M11.9902 32.1758L12.7593 26.0234L7.92969 26.1465L11.9902 32.1758Z" fill="#CC6228"/>
<path d="M27.4375 26.0234L28.2065 32.1758L32.2671 26.1465L27.4375 26.0234Z" fill="#CC6228"/>
<path d="M31.0893 19.2266L22.4453 19.6265L23.2451 23.9946L24.5371 21.3491L27.6133 22.7334L31.0893 19.2266Z" fill="#CC6228"/>
<path d="M12.6084 22.7334L15.6538 21.3491L16.9458 23.9946L17.7456 19.6265L9.10156 19.2266L12.6084 22.7334Z" fill="#CC6228"/>
<path d="M9.10156 19.2266L12.7314 26.2094L12.6084 22.7334L9.10156 19.2266Z" fill="#E27625"/>
<path d="M27.6147 22.7334L27.4609 26.2094L31.0908 19.2266L27.6147 22.7334Z" fill="#E27625"/>
<path d="M17.7451 19.625L16.9453 23.9931L17.9604 29.1919L18.1758 22.3628L17.7451 19.625Z" fill="#E27625"/>
<path d="M22.4463 19.625L22.0156 22.332L22.231 29.1919L23.2461 23.9931L22.4463 19.625Z" fill="#E27625"/>
<path d="M23.2417 23.9878L22.2266 29.1865L22.9648 29.6787L27.456 26.2026L27.6098 22.7266L23.2417 23.9878Z" fill="#F5841F"/>
<path d="M12.6016 22.7266L12.7246 26.2026L17.2158 29.6787L17.9541 29.1865L16.9389 23.9878L12.6016 22.7266Z" fill="#F5841F"/>
<path d="M23.3354 34.4482L23.3969 33.0332L22.997 32.7256H17.1831L16.8139 33.0332L16.8447 34.4482L11.9844 32.1719L13.6763 33.5561L17.1216 35.9248H23.0278L26.5038 33.5561L28.1957 32.1719L23.3354 34.4482Z" fill="#C0AD9E"/>
<path d="M22.9726 29.6875L22.2343 29.1953H17.9585L17.2202 29.6875L16.8203 33.0405L17.1895 32.7329H23.0034L23.4033 33.0405L22.9726 29.6875Z" fill="#2F343B"/>
<path d="M38.4418 11.9355L39.7338 5.75242L37.7958 0L22.9688 10.8281L28.6596 15.5961L36.7192 17.934L38.5033 15.873L37.7343 15.3193L38.9648 14.2118L38.0112 13.5043L39.2416 12.5507L38.4418 11.9355Z" fill="#763E1A"/>
<path d="M0.453125 5.75242L1.74511 11.9355L0.914549 12.5507L2.17578 13.5043L1.22216 14.2118L2.45263 15.3193L1.68359 15.873L3.46776 17.934L11.5273 15.5961L17.2182 10.8281L2.39111 0L0.453125 5.75242Z" fill="#763E1A"/>
<path d="M36.7202 17.9316L28.6606 15.5938L31.0908 19.2236L27.4609 26.2065L32.2597 26.145H39.4272L36.7202 17.9316Z" fill="#F5841F"/>
<path d="M11.5244 15.5938L3.46483 17.9316L0.757812 26.145H7.92526L12.7241 26.2065L9.0942 19.2236L11.5244 15.5938Z" fill="#F5841F"/>
<path d="M22.4502 19.6283L22.9731 10.8305L25.311 4.58594H14.8828L17.2207 10.8305L17.7436 19.6283L17.9282 22.3661L17.959 29.1952H22.2348L22.2656 22.3661L22.4502 19.6283Z" fill="#F5841F"/>
</svg>
