<svg width="40" height="40" viewBox="0 0 40 40" fill="none" xmlns="http://www.w3.org/2000/svg">
<g clip-path="url(#clip0_280_5143)">
<path d="M-50.9248 2.28126H-87.3935C-87.6198 2.28126 -87.8356 2.36451 -87.9949 2.51404C-88.0724 2.58557 -88.1343 2.67228 -88.1769 2.76878C-88.2194 2.86529 -88.2416 2.96951 -88.2422 3.07497V37.1998C-88.2422 37.4099 -88.1533 37.612 -87.9941 37.7607C-87.8348 37.9094 -87.619 37.9935 -87.3943 37.9935H-50.9248C-50.6992 37.9935 -50.4843 37.9094 -50.3242 37.7607C-50.2466 37.6892 -50.1845 37.6025 -50.1418 37.506C-50.0992 37.4095 -50.0768 37.3053 -50.0761 37.1998V3.07497C-50.0761 2.86483 -50.165 2.66276 -50.3242 2.51404C-50.4878 2.3633 -50.7023 2.28012 -50.9248 2.28126ZM-62.7981 25.2957C-62.7981 25.5058 -62.887 25.7079 -63.0471 25.8566C-63.2101 26.0071 -63.4241 26.0902 -63.646 26.0894H-74.6723C-74.897 26.0894 -75.1128 26.0054 -75.272 25.8566C-75.3497 25.7852 -75.4118 25.6985 -75.4545 25.602C-75.4971 25.5055 -75.5195 25.4012 -75.5202 25.2957V14.979C-75.5202 14.7689 -75.4312 14.5668 -75.272 14.4181C-75.1128 14.2686 -74.897 14.1853 -74.6723 14.1853H-63.646C-63.4213 14.1853 -63.2055 14.2686 -63.0471 14.4181C-62.9692 14.4895 -62.9069 14.5761 -62.8641 14.6726C-62.8213 14.7691 -62.7988 14.8735 -62.7981 14.979V25.2957ZM25.4236 14.187H14.3973C13.9285 14.187 13.5487 14.5426 13.5487 14.9807V25.2973C13.5487 25.7354 13.9285 26.091 14.3973 26.091H25.4228C25.8916 26.091 26.2715 25.7354 26.2715 25.2973V14.9807C26.2715 14.5418 25.8916 14.187 25.4228 14.187H25.4236ZM12.704 2.28126H1.67852C1.20973 2.28126 0.829849 2.6369 0.829849 3.07578V13.3924C0.829849 13.8305 1.20973 14.1861 1.67852 14.1861H12.7032C13.172 14.1861 13.5519 13.8305 13.5519 13.3924V3.07578C13.5519 2.6369 13.172 2.28207 12.7032 2.28207L12.704 2.28126ZM38.1521 2.28126H27.1258C26.6578 2.28126 26.278 2.6369 26.278 3.07578V13.3924C26.278 13.8305 26.6578 14.1861 27.1266 14.1861H38.1513C38.6201 14.1861 39 13.8305 39 13.3924V3.07578C39 2.6369 38.6201 2.28207 38.1513 2.28207L38.1521 2.28126ZM12.704 26.0902H1.67852C1.20973 26.0902 0.829849 26.4459 0.829849 26.8839V37.2014C0.829849 37.6395 1.20973 37.9943 1.67852 37.9943H12.7032C13.172 37.9943 13.5519 37.6387 13.5519 37.2014V26.8839C13.5519 26.4459 13.1728 26.0902 12.704 26.0902ZM38.1521 26.0902H27.1258C26.6578 26.0902 26.278 26.4459 26.278 26.8839V37.2014C26.278 37.6395 26.6578 37.9943 27.1266 37.9943H38.1513C38.6201 37.9943 39 37.6387 39 37.2014V26.8839C39 26.4459 38.6201 26.0902 38.1513 26.0902H38.1521ZM-6.39439 2.28126H-17.4191C-17.8879 2.28126 -18.2678 2.6369 -18.2678 3.07578V13.3924C-18.2678 13.8305 -17.8879 14.1861 -17.4191 14.1861H-6.39439C-5.92561 14.1861 -5.54572 13.8305 -5.54572 13.3924V3.07578C-5.54572 2.6369 -5.92561 2.28207 -6.39439 2.28207V2.28126ZM-6.39439 26.0902H-17.4191C-17.8879 26.0902 -18.2678 26.4459 -18.2678 26.8839V37.2014C-18.2678 37.6395 -17.8879 37.9943 -17.4191 37.9943H-6.39439C-5.92561 37.9943 -5.54572 37.6387 -5.54572 37.2014V26.8839C-5.54572 26.4459 -5.92561 26.0902 -6.39439 26.0902ZM-18.271 14.9702C-18.271 14.76 -18.3615 14.5579 -18.5199 14.4084C-18.6833 14.2581 -18.8976 14.1752 -19.1197 14.1764H-30.9938V3.07497C-30.9938 2.86483 -31.0827 2.66276 -31.242 2.51404C-31.4053 2.36342 -31.6195 2.28024 -31.8417 2.28126H-42.8672C-43.0927 2.28126 -43.3085 2.36451 -43.4677 2.51404C-43.5454 2.5855 -43.6075 2.67218 -43.6502 2.76868C-43.6929 2.86519 -43.7152 2.96945 -43.7159 3.07497V37.182C-43.7159 37.3921 -43.627 37.5942 -43.4677 37.7429C-43.3085 37.8916 -43.0927 37.9757 -42.8672 37.9757H-31.8425C-31.617 37.9757 -31.4012 37.8916 -31.242 37.7429C-31.0827 37.5942 -30.9938 37.3921 -30.9938 37.182V26.0805H-19.1205C-18.895 26.0805 -18.6792 25.9965 -18.5199 25.8477C-18.4423 25.7763 -18.3802 25.6896 -18.3376 25.5931C-18.2949 25.4966 -18.2725 25.3923 -18.2718 25.2868L-18.271 14.9702Z" fill="white"/>
</g>
<defs>
<clipPath id="clip0_280_5143">
<rect width="40" height="40" fill="white"/>
</clipPath>
</defs>
</svg>
