<svg width="40" height="40" viewBox="0 0 40 40" fill="none" xmlns="http://www.w3.org/2000/svg">
<g clip-path="url(#clip0_125_5047)">
<mask id="mask0_125_5047" style="mask-type:luminance" maskUnits="userSpaceOnUse" x="0" y="0" width="40" height="40">
<path d="M40 0H0V40H40V0Z" fill="white"/>
</mask>
<g mask="url(#mask0_125_5047)">
<path d="M31.4136 0H8.5864C3.84426 0 0 3.84426 0 8.5864V31.4136C0 36.1557 3.84426 40 8.5864 40H31.4136C36.1557 40 40 36.1557 40 31.4136V8.5864C40 3.84426 36.1557 0 31.4136 0Z" fill="#AB9FF2"/>
<path fill-rule="evenodd" clip-rule="evenodd" d="M17.2406 25.9938C15.6701 28.4004 13.0383 31.4459 9.53633 31.4459C7.88086 31.4459 6.28906 30.7644 6.28906 27.8041C6.28906 20.2648 16.5827 8.59375 26.1335 8.59375C31.5668 8.59375 33.7317 12.3634 33.7317 16.6442C33.7317 22.1389 30.166 28.4217 26.6216 28.4217C25.4967 28.4217 24.9449 27.8041 24.9449 26.8244C24.9449 26.5688 24.9874 26.292 25.0723 25.9938C23.8625 28.0596 21.5279 29.9764 19.3418 29.9764C17.75 29.9764 16.9435 28.9754 16.9435 27.5698C16.9435 27.0587 17.0496 26.5262 17.2406 25.9938ZM30.1454 16.4956C30.1454 17.743 29.4095 18.3667 28.5862 18.3667C27.7505 18.3667 27.027 17.743 27.027 16.4956C27.027 15.2483 27.7505 14.6246 28.5862 14.6246C29.4095 14.6246 30.1454 15.2483 30.1454 16.4956ZM25.4677 16.4957C25.4677 17.7431 24.7317 18.3668 23.9085 18.3668C23.0727 18.3668 22.3492 17.7431 22.3492 16.4957C22.3492 15.2483 23.0727 14.6246 23.9085 14.6246C24.7317 14.6246 25.4677 15.2483 25.4677 16.4957Z" fill="#FFFDF8"/>
</g>
</g>
<defs>
<clipPath id="clip0_125_5047">
<rect width="40" height="40" fill="white"/>
</clipPath>
</defs>
</svg>
