<svg width="40" height="40" viewBox="0 0 40 40" fill="none" xmlns="http://www.w3.org/2000/svg">
<rect width="40" height="40" rx="4" fill="#155FCC"/>
<path fill-rule="evenodd" clip-rule="evenodd" d="M8.8 5C7.2 5 6 6.3 6 7.8V11.1C6 12.7 7.3 13.9 8.8 13.9H13.8V32.2C13.8 33.8 15.1 35 16.6 35H19.9C21.5 35 22.7 33.7 22.7 32.2V11.1V7.8C22.7 6.2 21.4 5 19.9 5H16.6H8.8Z" fill="white"/>
<path d="M29.2984 13.9016C31.7984 13.9016 33.6984 11.9016 33.6984 9.50156C33.6984 7.10156 31.6984 5.10156 29.2984 5.10156C26.7984 5.10156 24.8984 7.10156 24.8984 9.50156C24.8984 11.9016 26.8984 13.9016 29.2984 13.9016Z" fill="white"/>
</svg>
