<svg width="40" height="40" viewBox="0 0 40 40" fill="none" xmlns="http://www.w3.org/2000/svg">
<rect width="40" height="40" rx="4" fill="white"/>
<path d="M19.9748 3.375C25.7195 7.82569 32.3075 7.55104 34.1895 7.55104C33.7785 32.8644 30.6412 29.4921 19.9748 36.5897C9.30844 29.493 6.19047 32.8644 5.78125 7.55104C7.64116 7.55104 14.2301 7.82569 19.9748 3.375Z" fill="white"/>
<path d="M19.9739 3.37869L20.8034 2.3068C20.5659 2.1231 20.2742 2.02344 19.9739 2.02344C19.6737 2.02344 19.3819 2.1231 19.1445 2.3068L19.9739 3.37869ZM34.1887 7.55473L35.5454 7.57685C35.5482 7.39691 35.5152 7.21821 35.4483 7.05116C35.3813 6.8841 35.2818 6.73203 35.1556 6.6038C35.0293 6.47557 34.8788 6.37373 34.7128 6.30423C34.5468 6.23473 34.3687 6.19895 34.1887 6.19897V7.55473ZM19.9739 36.5934L19.2228 37.7225C19.4452 37.8708 19.7066 37.95 19.9739 37.95C20.2413 37.95 20.5027 37.8708 20.7251 37.7225L19.9739 36.5934ZM5.7804 7.55473V6.19897C5.60052 6.19907 5.42245 6.23494 5.25656 6.3045C5.09067 6.37406 4.94027 6.4759 4.81411 6.60413C4.68794 6.73235 4.58854 6.88438 4.52168 7.05137C4.45481 7.21837 4.42183 7.39699 4.42464 7.57685L5.7804 7.55473ZM19.1445 4.45058C25.2984 9.21833 32.3398 8.91141 34.1896 8.91141V6.19897C32.2763 6.19897 26.1408 6.44044 20.8053 2.3068L19.1445 4.45058ZM32.8339 7.53261C32.7325 13.8312 32.4652 18.2745 31.9555 21.5658C31.4514 24.8229 30.7316 26.7741 29.8044 28.1455C28.8652 29.5695 27.6845 30.4146 25.9417 31.458C24.1804 32.5123 21.9564 33.6487 19.2237 35.4644L20.726 37.7225C23.326 35.9898 25.4938 34.8856 27.3343 33.7851C29.1896 32.6727 30.821 31.4487 32.0514 29.6644C33.2938 27.8266 34.1011 25.4322 34.632 21.9805C35.1592 18.563 35.4394 13.9354 35.5435 7.57685L32.8339 7.53261ZM20.7251 35.4644C17.9924 33.6487 15.7693 32.5151 14.0108 31.458C12.267 30.4156 11.091 29.5704 10.1546 28.1464C9.23294 26.7759 8.5122 24.8285 8.00989 21.5667C7.50114 18.2745 7.2357 13.8312 7.1334 7.53261L4.42188 7.57685C4.52602 13.9363 4.80436 18.563 5.32971 21.9796C5.86151 25.4312 6.66704 27.8257 7.91035 29.6635C9.13708 31.4478 10.7675 32.6727 12.621 33.7851C14.4587 34.8847 16.6256 35.9898 19.2265 37.7225L20.7251 35.4644ZM5.77764 8.91141C7.60897 8.91141 14.6504 9.21833 20.8007 4.45058L19.1417 2.3068C13.8053 6.44044 7.6698 6.19897 5.77764 6.19897V8.91141Z" fill="#3375BB"/>
</svg>
